<?xml version="1.0" standalone="no"?>
<!DOCTYPE svg PUBLIC "-//W3C//DTD SVG 20010904//EN"
 "http://www.w3.org/TR/2001/REC-SVG-20010904/DTD/svg10.dtd">
<svg version="1.0" xmlns="http://www.w3.org/2000/svg"
 width="93.000000pt" height="100.000000pt" viewBox="0 0 93.000000 100.000000"
 preserveAspectRatio="xMidYMid meet">
<metadata>
Created by potrace 1.11, written by Peter Selinger 2001-2013
</metadata>
<g transform="translate(0.000000,100.000000) scale(0.100000,-0.100000)"
fill="#000000" stroke="none">
<path d="M580 958 c-30 -12 -56 -22 -57 -23 -2 -1 3 -16 9 -33 11 -29 10 -34
-15 -60 -23 -24 -27 -37 -27 -85 0 -54 1 -57 45 -94 39 -32 45 -42 45 -75 0
-27 4 -38 15 -38 11 0 15 -11 15 -41 l0 -40 -37 3 c-35 3 -38 6 -41 36 -2 22
2 34 12 38 25 10 19 55 -11 86 -15 15 -30 28 -35 28 -4 0 -8 -52 -8 -115 0
-78 4 -115 11 -115 7 0 9 -9 6 -21 -4 -13 -1 -19 6 -16 7 2 41 15 77 27 105
37 101 23 98 309 l-3 246 -25 2 c-14 1 -50 -7 -80 -19z"/>
<path d="M356 875 c-33 -13 -63 -30 -67 -37 -5 -7 -9 -125 -9 -261 0 -203 3
-249 14 -253 16 -6 163 44 172 58 3 5 0 16 -8 25 -10 13 -10 17 0 20 9 4 12
46 12 166 l0 161 -35 -34 c-37 -36 -45 -74 -23 -109 15 -24 4 -51 -22 -51 -26
0 -37 27 -22 51 7 10 12 34 12 52 0 26 10 42 45 77 50 49 55 70 25 100 -11 11
-20 29 -20 40 0 25 -2 25 -74 -5z"/>
</g>
</svg>
